<?xml version="1.0" standalone="no"?>
<!DOCTYPE svg PUBLIC "-//W3C//DTD SVG 20010904//EN"
 "http://www.w3.org/TR/2001/REC-SVG-20010904/DTD/svg10.dtd">
<svg version="1.0" xmlns="http://www.w3.org/2000/svg"
 width="1500.000000pt" height="1500.000000pt" viewBox="0 0 1500.000000 1500.000000"
 preserveAspectRatio="xMidYMid meet">
<metadata>
Created by potrace 1.11, written by Peter Selinger 2001-2013
</metadata>
<g transform="translate(0.000000,1500.000000) scale(0.100000,-0.100000)"
fill="#000000" stroke="none">
<path d="M4654 11348 c-1870 -1872 -2867 -2875 -2916 -2938 -356 -453 -529
-1008 -489 -1564 35 -480 194 -887 499 -1276 104 -133 4250 -4278 4386 -4385
136 -107 259 -184 411 -259 750 -369 1652 -269 2306 257 114 91 4332 4311
4411 4412 224 288 384 641 448 990 118 643 -47 1303 -457 1824 -50 63 -1042
1063 -2917 2939 l-2841 2842 -2841 -2842z m7226 -4170 c30 -63 35 -85 38 -160
4 -90 -8 -148 -50 -233 -13 -26 -289 -309 -786 -807 -422 -423 -769 -768 -772
-768 -4 0 -42 43 -86 96 -74 90 -658 645 -2174 2063 -267 250 -501 469 -520
487 l-36 34 -444 -417 c-1679 -1573 -2211 -2078 -2284 -2167 -44 -53 -82 -96
-86 -96 -3 0 -350 345 -772 768 -801 802 -796 796 -827 914 -8 27 -12 82 -10
131 4 75 8 93 44 162 39 74 120 157 2210 2248 l2170 2172 2175 -2177 c2112
-2114 2176 -2180 2210 -2250z m-3400 -2719 c173 -163 327 -309 342 -325 71
-76 95 -208 58 -308 -22 -56 -56 -93 -563 -608 -545 -554 -590 -595 -692 -629
-52 -17 -208 -17 -260 0 -99 33 -148 78 -691 629 -508 515 -543 552 -564 608
-37 100 -12 232 58 308 15 16 241 229 502 475 261 245 554 521 650 612 l175
166 335 -316 c184 -174 477 -450 650 -612z"/>
</g>
</svg>
